<?xml version="1.0" encoding="UTF-8"?><svg id="Layer_1" xmlns="http://www.w3.org/2000/svg" viewBox="0 0 968.86 645.51"><defs><style>.cls-1{fill:#fcfcfc;}.cls-2{fill:#136fb8;}.cls-3{fill:#1a4793;}</style></defs><path class="cls-3" d="M360.14,640.85c-30.13,12.76-64.16-1.66-76.21-31.63-4.12-10.25-4.89-20.86-2.08-32.54l-156.11,31.12c-18.38,3.66-36.31-9.09-40.33-26.67l-32.54-142.19c-1.27-5.55,2.43-9.68,7.49-10.94,19.46-4.81,34.79-21.01,35.4-41.57.89-29.9-24.45-53.47-54-52.84-3.75.08-9.86-1.45-10.81-5.76L.82,192.11c-3.94-17.74,6.66-36.68,24.96-40.13l77.82-14.67,204.09-38.38,264.68-48.88L844.92.55c18.04-3.28,36.97,8.39,40.82,25.92l14.09,64.18,18.08,83.86c1.14,5.3-2.82,8.62-7.12,9.67-13.29,3.23-24.22,12.39-29.71,24.86-4.09,9.3-3.96,19.21-1.08,28.82,6.5,21.73,26.6,35.92,49.12,36.09,5.51.04,8.53,4.12,9.64,8.87l17.67,75.35,12.06,52.68c2.93,20.45-11.61,34.6-30.43,38.24l-561.78,108.68c7.6,9.39,12.95,19.47,14.23,31.48,2.37,22.3-9.48,42.54-30.37,51.59ZM295.8,535.87l-1.71-12.45c-3.74-27.29-33.98-46.37-61.9-41.8,3.18,22.64-11,40.69-32.07,45.66-24.38,5.74-48.58-7.76-54.1-32.91-.44-2.03,1.89-5.02.54-6.97,11.53,20.32,35.62,28.75,57.49,19.25,16.29-7.08,25.89-23.14,22.61-41.67,33.06-5.93,66.12,9.4,76.4,42.52,5,16.11,7.6,32.46,10.84,49.21-17.14,9.9-23.4,29.1-16.56,46.73,9.48,24.46,38.21,34.81,60.8,21.11,8.68-5.26,14.87-13.54,16.51-23.85,3.74-23.43-12.83-45.2-35.99-48.4l-7.41-36.19c-6.25-30.53-6.58-58.72,7.9-87.24,10.24-20.17,25.03-37.36,43.26-50.96,8.9,5.36,17.61,8.11,27.61,7.01,16.84-1.86,31.49-13.49,35.13-30.07,4.77,10.95,2.94,24.58-5.8,34.07-13.93,15.12-37.26,17.17-55.23,6.41-36.02,28.48-54.18,69.62-40.79,115.48l4.28,14.67c1.73,5.91,1.45,12.89,4.58,19.29l519.29-100.82,67.05-12.63c10.89-3.43,15.03-12.14,12.56-22.67l-27.94-118.94c-34.68-1.54-62.13-29.64-62.73-63.93-.23-13.24,3.9-24.89,11.98-35.05,7.13-9.2,16.69-15.34,27.23-20.24-1.17-6.61-2.31-12.48-3.9-18.55s-10.07-4.46-11.63-10.63c-2.53-10.01,8.63-10.33,5.53-22.71-2.55-10.2-10.48-6.5-12.91-13.26-3.27-9.07,7.6-10.21,5.08-21.95-.94-4.38-3.31-7.6-7.62-9.13-5.36-1.9-8.44-7.76-5.26-12.6l4.72-7.17-4.12-20.17c-2.38-11.63-12.09-17.94-23.75-15.8l-235.29,43.17-321.82,59.33L30.92,168.88c-9.64,1.79-15.46,11.13-13.3,20.42l29.29,126.25c30.01.13,56.4,22.81,64.4,50.47,9.62,33.26-9.09,63.41-40.35,76.09l5.34,23.94c1.71,7.68,8.71,3.32,11.37,11.18,2.93,8.65-8.12,9.33-5.62,20.15,2.28,9.85,11.25,7.2,13.89,14.75,3,8.58-7.89,10.4-5.31,20.74,2.51,10.07,11.42,6.72,13.91,15.21,1.96,6.69-5.53,10.36-5.31,13.84.26,4.3,1.95,7.93,2.49,12.38,1.29,10.6,11.12,18.54,22.22,16.27l70.07-14.29,105.93-21.55c-.22-6.93-3.32-12.79-4.15-18.87Z"/><path class="cls-2" d="M347.61,525.46l-4.28-14.67c-13.38-45.86,4.78-87,40.79-115.48,17.98,10.75,41.3,8.71,55.23-6.41,8.73-9.48,10.57-23.12,5.8-34.07,2.74-12.5-2.5-26.29-10.74-35.18-16.91-18.24-49.07-16.34-62.92,4.59-6.85,10.35-7.53,22.23-4.02,33.68-18.21,17.46-34.38,35.58-50.33,55.22l-10.05-52.72c-1.45-7.6-16.86-6.59-22.61-2-3.82,3.05-3.28,7.5-2.27,11.85,6.88,29.44,12.46,58.55,17.43,89.16-26.28-19.83-51.66-23.18-83.17-17.5-13.68-13.95-34.44-18.11-52.18-9.63-13.5,6.45-21.3,19.23-21.85,34.07-.26,6.97,1.84,13.01,3.29,19.33.08.34.6.57.76.88.09.24-.08.61.06.81,1.35,1.95-.99,4.95-.54,6.97,5.52,25.16,29.72,38.66,54.1,32.91,21.07-4.96,35.25-23.02,32.07-45.66,27.93-4.57,58.16,14.51,61.9,41.8l1.71,12.45-168.45,32.69-28.51-127.1c22.68-16.15,33.06-42.94,27.29-70.3-4.22-20.83-16.41-38.71-33.28-51.55l-29.01-137.11,298.35-55.67,486.71-90.37,13.15,65.86,13.8,68.15c-12.38,9.85-21.87,22.01-25.79,37.44-7.1,27.95,3.24,56.86,25.44,74.95,8.35,6.96,17.28,11.82,28.13,14.33l9.54,42.43,17.29,75.09-298.54,56.64-284.31,54.13ZM758.11,158.92c.12,3.24-.21,6.4.17,10.07l1.82,17.72c.64,6.23,2.32,12.03,1.95,17.97-1.88-3.54-1.16-7.34-3.5-9.82l-9.05-43.36c-1.77-8.45-8.74-13.01-17.08-12.71-7.88.28-14.6,3.5-18.68,10.78-1.47-2.41-2.39-5.16-5.16-4.98-3.89.26-7.64,1.33-11.62,1.88-2.24.31-3.72,2.05-3.28,4.6l2.11,12.23c.63,2.96-1.47,5.78-1.7,8.78-.62,8,2.39,15.47,3.79,23.21l7.68,42.35c.51,2.82,3.95,4.24,6.62,3.88l16.44-2.19c2.95-.39,4.99-2.56,4.34-5.59-1.24-5.77-1.71-11.57-3.58-17.15-1.68-5-6.3-28.37-7.11-34.31-.36-2.61-.68-4.77,2.07-5.66,1.6-.51,4.86.06,5.35,2.67l5.78,31.09c1.49,7.99,1.25,16.24,4.5,23.77,1.37,3.17,15.73-.38,21.34-.99,9.68-1.06,1.41-14.7,2.07-21.66l6.68,9.11c4.58,6.24,12.67,8.29,20.43,8.11,5.78-.13,11.41-1.72,16.96-3.79,16.86-6.27,13.69-29,8.73-41.53l-1.13-8.81c-.2-1.56-1.71-3.8-3.57-3.38.94-5.26-.33-10.57-2.67-15.51.63-1.27,1.8-2.64,1.6-3.82-.86-5.03-1.88-10.32-5.09-14.9-8.94-12.76-30.59-10.06-41.21-.08-6.24,5.86-6.29,14.36-6,22.01ZM640.34,172.03c-3.41,6.95-1.89,14.63,1.64,21.76l10.87,22c2.12,4.3,3.95,8.59,6.89,12.35.99,1.27,1.9,2.37.85,3.64-2.14.63-4.39,1.12-6.74,2.17-.85,3.61.05,6.95.57,10.17-.16,17.05-2.54,7.3.81,24.67,1.65,8.59,19.12,2.2,23.46-.31,6.04-3.5,8.91-10,9.38-17.05l4.95-74.87c.29-4.41-1.1-7.48-3-11.08-1.02-1.94-.53-4.67-.89-6.57-.59-3.16.75-6.46-.41-10.14-6.12.26-12.11,1.62-18.02,2.92-3.01.66-.15,29.99-1.68,35.68-5.3-9.65-8.92-19.39-13.17-29.37-.9-2.12-2.71-3.02-5.15-2.9l-12.19,2.17c-1.22.22-2.3.75-2.45,1.44-.65,3.04,4.93,14.41,4.27,13.31ZM588.56,190.54c.15,1.07.28,3.03.2,4.36l-.62,11.47c-1.6-1.53.02-4.43-2.24-4.47-.17-1.28-.52-2.79-1.31-3.79-1-1.26-3.06-1.36-4.87-1.02-3.68.69-16.63,2.62-17.67,3.72-1.84,1.95.74,8.45.16,9.94-.78,2.03.5,3.92.4,6.24-.32,7.38-.6,14.49,1.12,22.07l-4.15-9.84c.02-1.39-.24-2.99-.33-4.34.11-.16,1.04-.34.89-.56-.32-.48-1.59-.51-1.85-.32-.1-.21,0-.49-.07-.72-1-2.03-3.16-4.89-2.37-7.33.67-2.08,1.61-3.43,1.03-6.22-1.39-6.72-2.43-13.33-5.06-19.74-6.37-15.47-25.39-16.08-38.88-9.06-14.46,7.53-11.85,23.2-9.97,35.09-1.56,1.24-.53,3.62-.27,5.66l3.45,27.13c.47,3.66.95,6.75-2.34,8.52.57-3.47-.6-6.95-1.38-10.83l-12.11-60.36c-7.04-.13-12.86,1.16-19.21,2.41-.6,3.45-.11,6.76.55,9.91-.77,9.17.06,18.08,2.22,27.44.9,3.92-.05,8.33,2.61,11.68,1.2,1.52,2.25,3.04,2.06,4.88-.8,2.78-2.74,4.2-5.79,4.13-2.67-.07-5.17-2.15-5.8-5.29l-9.72-49c-6.86-.76-13.55,1.22-19.93,2.63l1.12,9.69-.33,1.39c-.17.7.21,1.56,1.21,1.24-.03.29.05.59,0,.88-1.96,12.33,2.29,19.51,3.29,31.67-.6.47-1.29-.31-1.97-.15-1.06-.61-1.09-2.51-1.75-3.33-1.64-16.28-5-9.55-4.53-18.59.33-6.22-2.62-14.11-8.94-17.08-11.95-5.61-27.48-2.06-35.89,7.8-5.04,5.91-3.67,13.19-3.09,19.88.16,1.88.68,3.9.52,6.22l-.71,10.49c-.04.64-.07,1.57-.39,1.68-2.24.78-.2-7.9-4.64-14.22-.98-1.39-2.16-2.47-1.91-4.06,2.18-1.67,1.09-4.37.4-6.79-2.02-7.1-6.81-11.9-14.16-12.97-7.57-1.1-15.2.09-22.05,3.32-6.21,2.92-9.1,7.98-11.64,13.67s-.19,11.23.51,17.59c.65,5.87-1.6,12.41,1.14,17.98,1.42,2.89,3.45,5.48,4.57,8.41,1.26,3.29,2.01,7.53,4.14,10.41-4.95,1.45-5.68,6.24-4.26,12.22-2.78-3.22-3.67-7.54-4.58-12.04l-4.55-22.61c-.26-1.3-.64-2.43-1.51-2.95l-7.67-37.27c-6.48,0-12.67,1.06-18.66,2.93-2.35.73-.69,10.03-.54,10.62-1.36,6.16.46,12.09,1.32,18.53,1.84,13.77,3.65,27.07,6.75,40.66,1.64,7.17,1.77,14.37,4.22,21.3,1.11,3.14,15.09-.5,22.21-1.04,3.36-.26,5.51-2.81,5.21-5.97-.37-3.89-2.56-6.96-1.81-11.28,3.97,7.53,10.4,12.09,18.86,12.41,13.45.5,34.28-2.9,36.9-19.96,3.99,3.91,6.8,7.1,11.86,8.35,10.9,2.7,22.47.83,32.35-4.61,5.53-3.04,8.02-8.19,9.83-14.36,4.12,4.25,6.63,8.16,11.23,9.91,9.14,3.47,17.54.5,26.11-2.98,6.43-2.61,13.95-2.07,20.6-3.35,9.36-1.8.02-13.26,2.58-18.85,9.71,19.4,36.12,17.91,50.1,5.8,6.91-5.98,6.59-16.87,4.82-26.52,2.76,2.53,6.01,2.58,9.49,1.37,5.07-1.77,18.14-2.4,18.23-5.28.43-15.29-7.66-17.49-4.89-20.02.42-.39,1.4-.72,1.74-1.33.2-.37-.13-.91-.66-1.21-.06-.49.19-1.05.09-1.54.75-.18.39-1.14,1.44-2.04-.25,3.52,1.55,5.95,3.86,8.71,1.57,1.87-.26,4.76,1.79,6.3,1.78,1.34,1.33,4.64,2.55,6.22-.15,1.61-2.47,2.4-2.82,4.39-1.68,9.61,4.45,20.3,14.55,22.39s20.58.61,29.57-4.11c3.73-1.96,8.23-6.05,9.81-9.88,3.68-8.9.21-18.51-2.52-26.82-.85-2.6-.23-4.36-1.29-6.29-2.29-4.17-2.06-10.78-6.18-13.94,1.9-4.11-.82-10.64-6.04-10.5l-2.84,3.88c-1.38,1.89-10.63-2.2-10.39.39-2.58-.55-5.4-.23-8.25-1.52-3.63-1.63-5.32-6.43-3.09-9.79,1.3-1.95,3.58-2.73,5.45-2.5,5.67.69,3.24,9.09,9.46,7.99,3.86-.68,7.43-1.45,11.14-2.4,6.41-1.63-.15-15.92-7.83-18.85-11.28-4.3-25.05-1.23-33.44,7.4-5.57,5.73-4.94,13.56-3.95,20.53ZM301.29,212.19l13.64-2.44c2.07-.37,2.99-2.14,2.62-4.19l-1.99-11.21c-.91-5.12-12.15-1.53-19.11-.36-4.16.7-1.01,11.03.02,15.39.5,2.11,2.26,3.27,4.81,2.81ZM199.02,222.17c-1.38-.03,0,1.91-.32,2.56-1.35,2.83-1.88,5.22-1.12,8.35,2.72,11.12,4.17,22.05,6.28,33.34l8.43,45.18c1.2,6.43,1.72,12.79,4.32,18.76,1.42,3.25,14.1-.43,21.23-1.04,8.22-.7,2.99-12.25.89-20.36-.87-3.36.1-7.18-2.09-9.53l-5.95-26.33c1.78-.62,1-6.56,6.6-6.27,2.12.11,3.6,1.93,4.07,4.36l3.27,16.93,1.56,11.81c1,7.56,2.01,14.89,4.27,22.22.74,2.39,2.89,3.82,5.53,3.22,7.21-1.63,19.72-1.43,20.44-5.62.91-5.31-4.41-19.98-4.66-21.17l-10.25-49.22c-2.58-12.41-7.3-19.68-19.42-19.53-7.55.09-13.59,3.34-17.77,10.4-2.95-10.02-4.03-19.38-6.21-29.16-.56-2.52-1.88-4.06-4.68-3.54l-14.74,2.74c-3.07.57-.6,7.39.3,11.89ZM166.54,245.06c-3.61-3.12-9.69-2.38-13.18.98-.25.11-.61.06-.88.09-3.05.31-5.8,2.25-7,5.08-.12.28-.51.77-.8.89-6.05,2.61-7.51,17.92-4.48,18.47.15,1.41.27,2.89.16,4.3-.8,10.76,2.62,14.24,2.86,22.44.22,7.71,1.47,15.73,4.56,22.73,1.16,2.63,3.96,4.04,2.77,7.74-.34,1.06.7,2.07,1.3,2.43,1.17.71,1.07,2.26,1.58,3.34.34,9.86-4.42,14.97,4.57,25.42,11.14,12.96,32.55,9.01,45.03,1.52,6.93-4.16,10.73-11.63,10.06-19.79-.92-11.33-1.8-22.64-6.21-30.84-.99-1.84-1.2-3.97-1.56-6,.79.07.77-.81.78-1.31,0-.74-.64-.92-.98-1.35-.36-.45-.54-1.19-.68-1.73.81.06.73-.81.79-1.31.09-.75-.81-.93-.99-1.35-1.66-3.85-9.78-47.35-10.94-55.05-.5-3.31-16.39,1.03-17.97,1.6-1.78.65-1.14,3.3-2.14,5.23-1.52-2.25-5.01-2.11-6.66-3.53ZM273.8,268.72c-2.76,2.3-.56,17.39.89,21.83.93,2.83,4.07,4.4,6.8,3.67,12.64-3.36,22.4-.95,21.64-7.92-.49-4.46-.79-9.2-2.93-13.13-.93-1.71-2.98-2.66-2.68-4.58,2.11-1.07.25-17.21-2.99-17.12-7.63.22-15.1,2.42-22.64,3.66-.63,5.39.7,9.43,1.91,13.57Z"/><path class="cls-1" d="M347.61,525.46l284.31-54.13,298.54-56.64-17.29-75.09-9.54-42.43c-10.85-2.51-19.78-7.37-28.13-14.33-22.2-18.09-32.54-46.99-25.44-74.95,3.92-15.43,13.41-27.59,25.79-37.44l-13.8-68.15-13.15-65.86-486.71,90.37L63.83,182.5l29.01,137.11c16.87,12.84,29.06,30.71,33.28,51.55,5.77,27.36-4.61,54.15-27.29,70.3l28.51,127.1,168.45-32.69c.83,6.08,3.93,11.93,4.15,18.87l-105.93,21.55-70.07,14.29c-11.1,2.26-20.93-5.67-22.22-16.27-.54-4.45-2.23-8.07-2.49-12.38-.21-3.48,7.27-7.15,5.31-13.84-2.49-8.49-11.39-5.14-13.91-15.21-2.58-10.34,8.32-12.16,5.31-20.74-2.64-7.55-11.61-4.9-13.89-14.75-2.5-10.82,8.55-11.5,5.62-20.15-2.67-7.86-9.66-3.5-11.37-11.18l-5.34-23.94c31.26-12.68,49.96-42.83,40.35-76.09-8-27.66-34.39-50.34-64.4-50.47l-29.29-126.25c-2.16-9.29,3.66-18.63,13.3-20.42l257.75-47.86,321.82-59.33,235.29-43.17c11.66-2.14,21.38,4.17,23.75,15.8l4.12,20.17-4.72,7.17c-3.18,4.84-.1,10.7,5.26,12.6,4.31,1.52,6.68,4.75,7.62,9.13,2.52,11.74-8.35,12.88-5.08,21.95,2.44,6.76,10.36,3.06,12.91,13.26,3.1,12.38-8.06,12.7-5.53,22.71,1.56,6.17,10.11,4.8,11.63,10.63s2.73,11.94,3.9,18.55c-10.54,4.9-20.1,11.03-27.23,20.24-8.08,10.16-12.21,21.81-11.98,35.05.6,34.3,28.05,62.39,62.73,63.93l27.94,118.94c2.47,10.53-1.67,19.23-12.56,22.67l-67.05,12.63-519.29,100.82c-3.13-6.4-2.86-13.38-4.58-19.29Z"/><path class="cls-3" d="M503.82,257.32c3.28-1.77,2.8-4.85,2.34-8.52l-3.45-27.13c-.26-2.04-1.28-4.41.27-5.66,1.16,7.35,2.51,14.78,5.35,22.05,6.17,15.82,20.89,17.93,35.6,12.69,9.48-3.38,15.51-11.77,15.67-21.54l4.15,9.84c-1.72-7.58-1.44-14.69-1.12-22.07.1-2.31-1.18-4.21-.4-6.24l2.35,6.48c5.87.27,11.52-2.1,17.61-2.28,2.39-.07,4.39-.47,5.28-2.43.53.31.87.85.66,1.21-.34.61-1.31.94-1.74,1.33-2.77,2.53,5.33,4.73,4.89,20.02-.08,2.88-13.15,3.51-18.23,5.28-3.47,1.21-6.72,1.16-9.49-1.37,1.77,9.65,2.09,20.54-4.82,26.52-13.98,12.11-40.39,13.6-50.1-5.8-2.56,5.6,6.78,17.06-2.58,18.85-6.65,1.28-14.17.74-20.6,3.35-8.56,3.48-16.97,6.45-26.11,2.98-4.6-1.75-7.11-5.66-11.23-9.91-1.81,6.17-4.3,11.32-9.83,14.36-9.88,5.43-21.46,7.3-32.35,4.61-5.06-1.25-7.87-4.43-11.86-8.35-2.62,17.06-23.45,20.45-36.9,19.96-8.46-.31-14.89-4.87-18.86-12.41-.76,4.32,1.43,7.39,1.81,11.28.3,3.16-1.85,5.71-5.21,5.97-7.11.54-21.1,4.18-22.21,1.04-2.44-6.93-2.58-14.13-4.22-21.3-3.1-13.59-4.91-26.89-6.75-40.66-.86-6.45-2.68-12.37-1.32-18.53,4.98,19.47,8.16,39.38,12.2,59.52.27,1.34,1.84,2.84,3.25,2.54,5.57-1.19,11.55-1.19,16.84-3.28,2.11-.83.41-5.24.03-7.16l-5.46-27.9c.87.52,1.25,1.65,1.51,2.95l4.55,22.61c.91,4.5,1.8,8.81,4.58,12.04-1.42-5.98-.69-10.77,4.26-12.22,10.3,8.28,24.26,6.46,35.75.48,5.91-3.07,9.72-8.26,10.92-14.5.18,3.2,2.5,6.18,3.1,10.04,5.04-4.6.99-9.89,3.14-9.09,7.19,12.19,27.98,9.09,39.26,1.66s8.65-18.9,6.26-29c.68-.16,1.37.62,1.97.15-1-12.16-5.25-19.33-3.29-31.67l8.67,42.82c1.04,5.15,4.23,10.46,8.96,12.78,9.82,4.8,21.28.95,27.43-8.19,4.07,7.81,6.77,3.57,16.85,3.32,1.54-.04,1.84-1.13,2.6-1.53Z"/><path class="cls-1" d="M758.55,194.87c-.92,2.89,4.44,15.12,1.48,16.15-5.24,1.81-10.8,1.96-16.26,2.99-1.56.29-3.35-.6-3.64-2.21l-8.98-48.96c-.77-4.19-4.7-5.98-7.8-5.38-4.05.78-5.66,4.38-5.07,8.66,2.25,16.29,5.84,31.95,8.98,48.14.33,1.68-.58,3.71-2.4,3.83-5.32.38-10.62,2.57-16.07,1.97-2.86-.31-2.73-4.83-3.17-7.05l-9.83-49.69-2.11-12.23c-.44-2.55,1.04-4.3,3.28-4.6,3.98-.55,7.73-1.62,11.62-1.88,2.77-.19,3.69,2.56,5.16,4.98,4.08-7.28,10.8-10.5,18.68-10.78,8.34-.3,15.31,4.26,17.08,12.71l9.05,43.36Z"/><path class="cls-3" d="M758.55,194.87c2.34,2.48,1.62,6.28,3.5,9.82.36-5.94-1.31-11.74-1.95-17.97l-1.82-17.72c-.38-3.67-.04-6.83-.17-10.07,2.15,10.52,3.12,21.33,6.73,32.07,5.24,15.58,18.19,17.74,32.72,14.52,11.04-2.45,17.82-11.32,18.61-22.09,4.96,12.53,8.13,35.26-8.73,41.53-5.55,2.06-11.19,3.65-16.96,3.79-7.77.18-15.85-1.87-20.43-8.11l-6.68-9.11c-.66,6.96,7.61,20.6-2.07,21.66-5.61.61-19.97,4.16-21.34.99-3.25-7.53-3.01-15.77-4.5-23.77l-5.78-31.09c-.48-2.6-3.74-3.18-5.35-2.67-2.75.88-2.42,3.04-2.07,5.66.81,5.94,5.43,29.31,7.11,34.31,1.87,5.58,2.35,11.38,3.58,17.15.65,3.03-1.39,5.2-4.34,5.59l-16.44,2.19c-2.67.36-6.11-1.06-6.62-3.88l-7.68-42.35c-1.4-7.74-4.41-15.2-3.79-23.21.23-3,2.33-5.83,1.7-8.78l9.83,49.69c.44,2.23.3,6.74,3.17,7.05,5.45.59,10.75-1.6,16.07-1.97,1.82-.13,2.72-2.15,2.4-3.83-3.14-16.19-6.73-31.85-8.98-48.14-.59-4.29,1.02-7.88,5.07-8.66,3.1-.6,7.03,1.19,7.8,5.38l8.98,48.96c.3,1.61,2.08,2.51,3.64,2.21,5.46-1.03,11.02-1.18,16.26-2.99,2.96-1.02-2.4-13.26-1.48-16.15Z"/><path class="cls-1" d="M327.3,254.67l5.46,27.9c.38,1.92,2.08,6.33-.03,7.16-5.29,2.08-11.27,2.08-16.84,3.28-1.41.3-2.98-1.2-3.25-2.54-4.04-20.14-7.22-40.05-12.2-59.52-.15-.58-1.81-9.88.54-10.62,5.99-1.87,12.17-2.94,18.66-2.93l7.67,37.27Z"/><path class="cls-3" d="M153.45,333.55c2.97,6.25,8.53,10.69,15.93,11.39,15.86,1.51,40.17-6.06,38.41-25.33l-.89-9.75c4.41,8.2,5.28,19.51,6.21,30.84.67,8.16-3.13,15.63-10.06,19.79-12.47,7.49-33.89,11.44-45.03-1.52-8.98-10.45-4.22-15.56-4.57-25.42Z"/><path class="cls-3" d="M654.42,244.13c.25,1.53.91,4.36,1.92,5.63,2.24,2.28,5.78.7,8.31.44,11.31-1.2,18.49-9.05,19.31-20.32l5.18-70.94c.36,1.9-.14,4.63.89,6.57,1.9,3.61,3.29,6.67,3,11.08l-4.95,74.87c-.47,7.04-3.33,13.55-9.38,17.05-4.34,2.51-21.81,8.9-23.46.31-3.35-17.37-.97-7.62-.81-24.67Z"/><path class="cls-3" d="M597.19,230.18c10.27,12.33,34.33,7.91,43.71-3.74,3.91-4.86,3.67-10.93,3.6-16.59,1.06,1.93.44,3.7,1.29,6.29,2.73,8.31,6.2,17.92,2.52,26.82-1.58,3.83-6.08,7.92-9.81,9.88-8.98,4.72-19.63,6.16-29.57,4.11s-16.24-12.78-14.55-22.39c.35-1.99,2.66-2.77,2.82-4.39Z"/><path class="cls-3" d="M297.53,268.6c-.3,1.92,1.74,2.87,2.68,4.58,2.14,3.93,2.44,8.66,2.93,13.13.77,6.97-9,4.56-21.64,7.92-2.73.73-5.87-.84-6.8-3.67-1.45-4.44-3.65-19.53-.89-21.83,1.88,6.45,15.94-1.75,23.72-.12Z"/><path class="cls-1" d="M689.14,158.92l-5.18,70.94c-.82,11.27-8,19.13-19.31,20.32-2.52.27-6.07,1.85-8.31-.44-1.01-1.26-1.67-4.09-1.92-5.63-.52-3.23-1.42-6.57-.57-10.17,2.35-1.05,4.6-1.54,6.74-2.17,4.2-1.24,6.92-7.37,4.58-12.02-8.18-16.21-15.66-32.51-24.82-47.73.67,1.11-4.92-10.26-4.27-13.31.15-.7,1.23-1.23,2.45-1.44l12.19-2.17c2.44-.13,4.25.77,5.15,2.9,4.25,9.98,7.87,19.73,13.17,29.37,1.54-5.69-1.32-35.01,1.68-35.68,5.91-1.3,11.9-2.66,18.02-2.92,1.15,3.68-.19,6.97.41,10.14Z"/><path class="cls-3" d="M660.59,231.78c1.04-1.28.14-2.37-.85-3.64-2.94-3.76-4.77-8.05-6.89-12.35l-10.87-22c-3.52-7.13-5.04-14.81-1.64-21.76,9.16,15.22,16.65,31.52,24.82,47.73,2.35,4.65-.38,10.78-4.58,12.02Z"/><path class="cls-1" d="M619.05,189.67c6.55,1.41,13.78,2.02,19.27,6.23,4.12,3.16,3.89,9.77,6.18,13.94.07,5.66.31,11.74-3.6,16.59-9.38,11.65-33.44,16.06-43.71,3.74-1.22-1.58-.77-4.88-2.55-6.22.36-1.45-.9-4.9.9-6.01,4.05-2.48,9.17-3.14,13.89-3.95s3.27,9.11,10.8,7.82c3.21-.55,5.37-3.1,5.16-6.67-.89-15.36-28.88.6-36.83-24.6-.99-6.98-1.62-14.8,3.95-20.53,8.39-8.63,22.16-11.7,33.44-7.4,7.68,2.93,14.23,17.22,7.83,18.85-3.72.95-7.29,1.72-11.14,2.4-6.22,1.1-3.79-7.3-9.46-7.99-1.87-.23-4.15.54-5.45,2.5-2.24,3.36-.54,8.15,3.09,9.79,2.85,1.29,5.67.96,8.25,1.52Z"/><path class="cls-3" d="M594.64,223.95c-2.05-1.54-.22-4.43-1.79-6.3-2.31-2.76-4.11-5.19-3.86-8.71-1.05.9-.69,1.86-1.44,2.04-.62-3.01-1.25-6.03-1.66-9.08,2.27.04.64,2.94,2.24,4.47l.62-11.47c.07-1.33-.05-3.29-.2-4.36,7.95,25.2,35.94,9.24,36.83,24.6.21,3.57-1.95,6.12-5.16,6.67-7.53,1.29-6.18-8.62-10.8-7.82s-9.84,1.47-13.89,3.95c-1.8,1.11-.54,4.56-.9,6.01Z"/><path class="cls-1" d="M585.9,201.9c.41,3.05,1.04,6.07,1.66,9.08.1.49-.15,1.05-.09,1.54-.89,1.96-2.89,2.36-5.28,2.43-6.1.18-11.74,2.55-17.61,2.28l-2.35-6.48c.57-1.49-2.01-7.99-.16-9.94,1.05-1.1,13.99-3.03,17.67-3.72,1.81-.34,3.87-.24,4.87,1.02.79,1,1.14,2.51,1.31,3.79Z"/><path class="cls-1" d="M297.53,268.6c-7.79-1.63-21.85,6.57-23.72.12-1.21-4.15-2.54-8.19-1.91-13.57,7.55-1.24,15.01-3.45,22.64-3.66,3.24-.09,5.1,16.05,2.99,17.12Z"/><path class="cls-1" d="M301.29,212.19c-2.55.46-4.31-.7-4.81-2.81-1.03-4.36-4.18-14.69-.02-15.39,6.96-1.17,18.2-4.76,19.11.36l1.99,11.21c.36,2.05-.55,3.81-2.62,4.19l-13.64,2.44Z"/><path class="cls-3" d="M386.43,228.32c2.19,7.45,7.33,12.97,15.45,14.42l14.72,2.62c3.5.62,5.61,2.68,6.39,5.63.84,3.19-.34,6.62-3.39,8.11,1.2-2.23,2.73-4.47,1.23-7.01-2.37-4.03-7.89-4.16-9.31-2.56-.66.74-1.06,2.23-.91,3.25-1.34-3.21-18.18,1.15-18.47,3.63-.53-.67-1.6-1.26-2.38-1.96-.49-.44-.9.66-1.49,1.08-.81-14.68-18.65-17.64-30.01-18.66-3.24-.29-4.92-1.96-6.37-4.16,2.48,3.09,10.94,4.4,11.83,2.64.55-1.08.54-2.4.63-3.58,5.08-.42,10.07-1.85,14.94-3.33-.25,1.58.93,2.66,1.91,4.06,4.44,6.33,2.4,15,4.64,14.22.32-.11.35-1.04.39-1.68l.71-10.49c.16-2.32-.36-4.34-.52-6.22Z"/><path class="cls-3" d="M638.32,195.91c-5.49-4.22-12.72-4.83-19.27-6.23-.24-2.59,9,1.5,10.39-.39l2.84-3.88c5.23-.14,7.94,6.39,6.04,10.5Z"/><path class="cls-3" d="M166.54,245.06c-4.44.16-9.06-.85-13.18.98,3.49-3.36,9.57-4.09,13.18-.98Z"/><path class="cls-1" d="M503.82,257.32c-.75.41-1.06,1.49-2.6,1.53-10.08.25-12.78,4.49-16.85-3.32-6.15,9.13-17.61,12.99-27.43,8.19-4.73-2.31-7.92-7.63-8.96-12.78l-8.67-42.82c.05-.29-.03-.59,0-.88.52-.48.49-1.16.15-1.71-.25-.42-.59-.74-1.04-.92l-1.12-9.69c6.39-1.41,13.07-3.39,19.93-2.63l9.72,49c.62,3.14,3.13,5.23,5.8,5.29,3.05.08,4.99-1.35,5.79-4.13.53-1.84,1.52-3.62.96-6.31l-7.85-37.68c-.66-3.15-1.15-6.46-.55-9.91,6.35-1.25,12.17-2.54,19.21-2.41l12.11,60.36c.78,3.88,1.95,7.35,1.38,10.83Z"/><path class="cls-3" d="M478.54,242.45c.19-1.84-.86-3.36-2.06-4.88-2.66-3.36-1.7-7.77-2.61-11.68-2.16-9.36-2.99-18.27-2.22-27.44l7.85,37.68c.56,2.69-.43,4.48-.96,6.31Z"/><path class="cls-3" d="M439.31,207.23c-1,.32-1.38-.54-1.21-1.24l.33-1.39c.44.18.78.5,1.04.92.34.56.37,1.24-.15,1.71Z"/><path class="cls-3" d="M152.48,246.13l-7,5.08c1.2-2.84,3.95-4.77,7-5.08Z"/><path class="cls-3" d="M559.26,224.88c-.53.23-.78-.5-.96-.88.26-.19,1.52-.16,1.85.32.15.22-.78.4-.89.56Z"/><path class="cls-2" d="M392.16,256.42c-.44,3.71,1.08,7.38,2.95,10.55-2.16-.79,1.9,4.49-3.14,9.09-.61-3.86-2.93-6.84-3.1-10.04l-.58-10.49c.59-.42,1-1.52,1.49-1.08.78.7,1.85,1.29,2.38,1.96Z"/><path class="cls-2" d="M175.28,295.94c-2.18,1.57-4.88.59-6.62-.66s-3.03-3.23-3.18-5.47c.29-2.13-.34-3.58-.56-5.37-.4-3.35,2.28-5.94,4.89-6.69,3.47-.99,5.16,2.06,6.92,4.67,3.09,4.58,3.03,10.3-1.45,13.52Z"/><path class="cls-1" d="M204.26,296.81c.05.88,0,1.8.21,2.66.13.54.32,1.28.68,1.73.03.89.05,1.78.2,2.66.36,2.03.57,4.16,1.56,6l.89,9.75c1.76,19.27-22.55,26.84-38.41,25.33-7.4-.7-12.96-5.14-15.93-11.39-.51-1.08-.41-2.62-1.58-3.34.06-1.47-1.06-5.05.51-6.23,5.46-2.42,11.37-3.68,16.94-4.45.62.84,2.11,1.26,2.63,2.74,1.46,4.17,4.77,6.28,9.04,5.19,8.93-2.28,4.82-13.78,2.89-20.83-3.68,3.83-8.39,7.66-13.74,8.4-10.29,1.42-19.72-4.31-23.6-14.12-3.41-8.62-4.36-17.43-6.15-26.04.11-1.42-.01-2.9-.16-4.3-.7-6.56,1.16-12.82,4.48-18.47.29-.12.68-.61.8-.89l7-5.08c.27-.03.63.02.88-.09,4.12-1.83,8.74-.81,13.18-.98,1.65,1.42,5.14,1.28,6.66,3.53,1-1.92.36-4.58,2.14-5.23,1.58-.58,17.47-4.91,17.97-1.6,1.16,7.71,9.28,51.2,10.94,55.05ZM161.91,266.97c-.99,7.47,1.12,15.62,3.57,22.84.15,2.24,1.42,4.21,3.18,5.47s4.45,2.23,6.62.66c9.09-1.7,2.21-22.76.29-28.16-1.15-3.25-2.06-6.82-6.03-7.12-4.46-.34-7.11,2.36-7.63,6.31Z"/><path class="cls-3" d="M170.13,315.03c-1.38,1.02-1.93,2.99-.82,4.5-5.57.76-11.49,2.02-16.94,4.45-1.57,1.18-.45,4.76-.51,6.23-.6-.36-1.64-1.37-1.3-2.43,1.2-3.69-1.6-5.11-2.77-7.74-3.1-7-4.34-15.02-4.56-22.73-.24-8.2-3.66-11.68-2.86-22.44,1.79,8.61,2.75,17.42,6.15,26.04,3.88,9.81,13.31,15.54,23.6,14.12Z"/><path class="cls-3" d="M144.69,252.1c-3.32,5.65-5.18,11.91-4.48,18.47-3.03-.55-1.57-15.86,4.48-18.47Z"/><path class="cls-3" d="M205.34,303.86c-.15-.88-.18-1.77-.2-2.66.34.43.98.61.98,1.35,0,.5,0,1.38-.78,1.31Z"/><path class="cls-3" d="M204.46,299.47c-.21-.86-.15-1.78-.21-2.66.18.42,1.08.6.99,1.35-.06.5.02,1.37-.79,1.31Z"/><path class="cls-2" d="M169.31,319.54c-1.12-1.51-.56-3.49.82-4.5,5.35-.74,10.06-4.57,13.74-8.4,1.93,7.05,6.04,18.55-2.89,20.83-4.26,1.09-7.57-1.03-9.04-5.19-.52-1.47-2.01-1.9-2.63-2.74Z"/><path class="cls-3" d="M175.57,267.78c1.92,5.4,8.8,26.46-.29,28.16,4.48-3.22,4.53-8.94,1.45-13.52-1.75-2.61-3.45-5.65-6.92-4.67-2.61.74-5.29,3.34-4.89,6.69.21,1.79.85,3.23.56,5.37-2.45-7.22-4.55-15.36-3.57-22.84l.56,4.36c-.18.38,14.17-2.61,12.24-1.89.51-.19.86-.86.86-1.66Z"/><path class="cls-2" d="M175.57,267.78c0,.8-.35,1.47-.86,1.66,1.92-.73-12.42,2.26-12.24,1.89l-.56-4.36c.52-3.96,3.17-6.65,7.63-6.31,3.97.3,4.88,3.87,6.03,7.12Z"/><path class="cls-1" d="M434.35,217.72c-3.27,2.2-7.54,2-11.52,3.34-3.31,1.11-6.15.68-7.46-2.41.22-3.33-2.89-5.82-5.84-5.47-3.18.38-5.09,3.17-4.96,6.24.23,5.93,5.05,5.7,8.83,6.54l13.45,3.01c4.94,1.11,9.14,3.7,12.05,7.32.65.81.68,2.71,1.75,3.33,2.39,10.1,4.51,21.91-6.26,29s-32.08,10.53-39.26-1.66c-1.87-3.17-3.39-6.85-2.95-10.55.29-2.47,17.13-6.84,18.47-3.63.3,1.99,1.3,4.21,2.66,5.31,1.6,1.29,4.59,1.85,6.32,1,3.05-1.5,4.23-4.92,3.39-8.11-.78-2.95-2.89-5.01-6.39-5.63l-14.72-2.62c-8.12-1.45-13.26-6.97-15.45-14.42-.58-6.69-1.95-13.97,3.09-19.88,8.42-9.85,23.94-13.41,35.89-7.8,6.32,2.97,9.26,10.86,8.94,17.08Z"/><path class="cls-3" d="M438.88,236.3c-2.9-3.62-7.1-6.21-12.05-7.32l-13.45-3.01c1.16-.17,4.19-.4,4.37-1.87-1.38-2.38-2.54-3.27-2.39-5.44,1.31,3.08,4.15,3.52,7.46,2.41,3.98-1.34,8.26-1.15,11.52-3.34-.47,9.04,2.89,2.31,4.53,18.59Z"/><path class="cls-2" d="M415.37,218.65c-.14,2.17,1.01,3.07,2.39,5.44-.19,1.47-3.21,1.7-4.37,1.87-3.77-.85-8.59-.61-8.83-6.54-.12-3.08,1.79-5.87,4.96-6.24,2.95-.35,6.07,2.15,5.84,5.47Z"/><path class="cls-2" d="M419.61,259.1c-1.73.85-4.72.29-6.32-1-1.36-1.1-2.36-3.33-2.66-5.31-.15-1.02.25-2.51.91-3.25,1.42-1.6,6.93-1.47,9.31,2.56,1.5,2.54-.03,4.78-1.23,7.01Z"/><path class="cls-1" d="M555.86,215.95l-30.73,5.62c-.88,4.29.26,8.16,2.49,11.22,1.06,1.45,1.39,3.07,3.59,3.37,2.94.4,5.2.12,7.21-2.02s1.73-4.77,1.71-7.57c.24-.11.63-.49.73-.73,5.65-1.6,11.5-2.76,17.38-2.54.06.23-.03.51.07.72.18.37.43,1.11.96.88.09,1.36.35,2.95.33,4.34-.16,9.77-6.19,18.16-15.67,21.54-14.71,5.24-29.42,3.14-35.6-12.69-2.84-7.27-4.19-14.7-5.35-22.05-1.87-11.89-4.49-27.56,9.97-35.09,13.49-7.03,32.51-6.41,38.88,9.06,2.64,6.41,3.67,13.02,5.06,19.74.58,2.8-.36,4.15-1.03,6.22ZM536.3,205.69c-.34-4.27-.82-7.95-3.05-11.08-1.56-2.19-4.2-2.7-6.78-2.33-1.73.25-4.56,1.41-5.4,3.88-1.35,3.94-.97,8.64.9,12.02l14.34-2.49Z"/><path class="cls-3" d="M555.86,215.95c-.79,2.44,1.37,5.31,2.37,7.33-5.88-.22-11.73.94-17.38,2.54.4-.92.99-2.13.31-2.75-2.26-2.05-10.55,1.95-12.72,4.19-1.44,1.49-.86,3.88-.82,5.51-2.23-3.06-3.37-6.93-2.49-11.22l30.73-5.62Z"/><path class="cls-2" d="M536.3,205.69l-14.34,2.49c-1.87-3.38-2.24-8.08-.9-12.02.84-2.46,3.68-3.62,5.4-3.88,2.58-.37,5.22.14,6.78,2.33,2.23,3.13,2.71,6.81,3.05,11.08Z"/><path class="cls-2" d="M540.86,225.83c-.1.24-.49.62-.73.73-1.18.54-1.02,1.93-1.08,3.37-.32,7.86-8.17,4.31-7.83,6.22-2.2-.3-2.53-1.92-3.59-3.37-.04-1.63-.62-4.02.82-5.51,2.18-2.25,10.47-6.25,12.72-4.19.68.62.1,1.83-.31,2.75Z"/><path class="cls-3" d="M531.21,236.15c-.34-1.91,7.51,1.65,7.83-6.22.06-1.44-.09-2.83,1.08-3.37.02,2.8.27,5.46-1.71,7.57s-4.27,2.42-7.21,2.02Z"/><path class="cls-1" d="M271.78,298.59c.21,1.9-.92,3.6-3.29,3.77-11.65.84-17.02,5.18-18.38-2.08l-7.99-42.76c-.41-2.2-1.28-3.89-1.99-5.56-1.14-2.68-4-3.85-7.26-2.76-4.42,1.48-6.05,7.08-3.91,10.88.4,4.23.78,8.85,1.73,13.04l5.95,26.33c-.31,2.45,2.81,8.02-1.64,8.82l-14.88,2.69c-1.31.24-3.29-.41-3.6-1.97l-17.5-86.81c-.91-4.5-3.37-11.32-.3-11.89l14.74-2.74c2.81-.52,4.12,1.02,4.68,3.54,2.18,9.78,3.26,19.14,6.21,29.16,4.18-7.06,10.22-10.3,17.77-10.4,12.12-.15,16.84,7.12,19.42,19.53l10.25,49.22Z"/><path class="cls-3" d="M236.64,299.44c2.19,2.35,1.22,6.17,2.09,9.53,2.1,8.1,7.32,19.66-.89,20.36-7.13.61-19.81,4.29-21.23,1.04-2.6-5.96-3.12-12.33-4.32-18.76l-8.43-45.18c-2.11-11.29-3.56-22.22-6.28-33.34-.76-3.12-.23-5.52,1.12-8.35.31-.65-1.06-2.59.32-2.56l17.5,86.81c.32,1.57,2.3,2.21,3.6,1.97l14.88-2.69c4.46-.8,1.33-6.37,1.64-8.82Z"/><path class="cls-3" d="M271.78,298.59c.25,1.19,5.57,15.86,4.66,21.17-.72,4.19-13.23,3.99-20.44,5.62-2.63.59-4.79-.83-5.53-3.22-2.26-7.33-3.27-14.66-4.27-22.22l-1.56-11.81-3.27-16.93c-.47-2.43-1.95-4.25-4.07-4.36-5.6-.28-4.83,5.65-6.6,6.27-.95-4.19-1.33-8.81-1.73-13.04,5.56-.68,3.26-2.01,11.41-3.28-.32-2.1-1.41-3.87-.24-4.83.71,1.66,1.57,3.36,1.99,5.56l7.99,42.76c1.36,7.27,6.73,2.92,18.38,2.08,2.38-.17,3.5-1.87,3.29-3.77ZM230.69,262.14c0-.24-.2-.44-.44-.44s-.44.2-.44.44.2.44.44.44.44-.2.44-.44Z"/><path class="cls-2" d="M240.13,251.96c-1.17.97-.08,2.73.24,4.83-8.15,1.27-5.85,2.6-11.41,3.28-2.14-3.8-.5-9.4,3.91-10.88,3.26-1.09,6.12.08,7.26,2.76Z"/><circle class="cls-2" cx="230.25" cy="262.14" r=".44"/><path class="cls-1" d="M379.3,228.43c-4.87,1.48-9.86,2.91-14.94,3.33l-.83-.89c-.45-.68-1-1.27-1.71-1.67-.16-2.35-1.6-4.82-3.49-5.34-2.83-.79-5.51,0-6.73,2.05-1.41,2.36-1.03,4.79.31,6.81,1.45,2.19,3.12,3.87,6.37,4.16,11.36,1.02,29.2,3.98,30.01,18.66l.58,10.49c-1.2,6.25-5.01,11.43-10.92,14.5-11.49,5.97-25.45,7.8-35.75-.48-2.12-2.87-2.88-7.12-4.14-10.41-.25-2.03.34-4.29,2.76-5.07,7.5-2.4,14.54-5.22,16.37.64.72,2.33,2.82,3.92,4.9,4.32,2.7.52,4.06-1.01,5.77-2.46,2.18-1.86,2.04-4.83.79-7.48-3.87-8.26-25.75-1.09-33.5-15.29-3.21-5.89-3.82-12.37-3.31-18.65,2.54-5.68,5.44-10.74,11.64-13.67,6.86-3.23,14.49-4.42,22.05-3.32,7.36,1.07,12.15,5.87,14.16,12.97.69,2.42,1.77,5.12-.4,6.79Z"/><path class="cls-3" d="M367.86,267.07c-.9-1.57-.91-4.12-2.72-5.52s-5.97-1.18-7.44.42c-.75.82,1.04,3.17-.51,3.25-1.82-5.86-8.86-3.04-16.37-.64-2.43.78-3.02,3.04-2.76,5.07-1.12-2.93-3.15-5.52-4.57-8.41-2.74-5.57-.49-12.1-1.14-17.98-.7-6.36-2.96-12.11-.51-17.59-.51,6.28.1,12.76,3.31,18.65,7.74,14.2,29.62,7.03,33.5,15.29,1.24,2.65,1.39,5.62-.79,7.48Z"/><path class="cls-2" d="M361.82,229.2c.03.37-.23.87-.07,1.27.29.75,1.21.52,1.79.4l.83.89c-.09,1.18-.08,2.5-.63,3.58-.89,1.76-9.35.45-11.83-2.64-1.34-2.02-1.72-4.45-.31-6.81,1.22-2.04,3.9-2.83,6.73-2.05,1.89.53,3.33,3,3.49,5.34Z"/><path class="cls-2" d="M367.86,267.07c-1.71,1.46-3.07,2.98-5.77,2.46-2.08-.4-4.18-1.99-4.9-4.32,1.55-.08-.24-2.43.51-3.25,1.47-1.6,5.67-1.8,7.44-.42s1.81,3.95,2.72,5.52Z"/><path class="cls-3" d="M363.53,230.87c-.58.12-1.5.35-1.79-.4-.16-.4.1-.9.07-1.27.71.4,1.27,1,1.71,1.67Z"/><path class="cls-2" d="M795.69,175.59c-.13,5.53,2.37,10.43-2.33,13.22-1.71,1.01-4.02,1.37-5.56-.02-1.07-1.78-2.79-2.8-3.22-4.73-1.67-7.43-4.45-15.23-1.21-19.5.68-.89,2.86-2.08,4.17-.87,3.21,2.95,2.17,10.13,8.14,11.89Z"/><path class="cls-1" d="M810.4,151.89c-.81.52-1.31,1.98-2.63,2.24l-11.24,2.17c-2.81.54-4.25-1.03-5.91-2.59.03-.31-.1-.64-.03-.94.23-.97-.65-1.86-.85-2.64-.16-2.35-1.5-4.35-4.3-4.81-2.23-.37-4.34.63-5.57,1.84-1.85,1.82-1.83,4.18-1.79,6.42.15,8.81,2.78,17.42,4.25,26.51.62,3.86,2.11,7.07,5.45,8.71,1.53,1.39,3.85,1.03,5.56.02,4.7-2.79,2.2-7.69,2.33-13.22,4.74-2.82,10.42-3.16,15.78-4.37,1.86-.42,3.37,1.82,3.57,3.38l1.13,8.81c-.8,10.76-7.57,19.63-18.61,22.09-14.52,3.23-27.48,1.06-32.72-14.52-3.61-10.74-4.59-21.55-6.73-32.07-.29-7.65-.24-16.14,6-22.01,10.61-9.98,32.27-12.68,41.21.08,3.21,4.58,4.24,9.87,5.09,14.9Z"/><path class="cls-3" d="M811.47,171.23c-5.35,1.21-11.03,1.55-15.78,4.37-5.97-1.77-4.93-8.94-8.14-11.89-1.31-1.21-3.5-.02-4.17.87-3.24,4.27-.47,12.07,1.21,19.5.43,1.93,2.15,2.95,3.22,4.73-3.34-1.64-4.83-4.85-5.45-8.71-1.46-9.08-4.1-17.7-4.25-26.51,1.57.77.74,3.4,1.14,5.22,2.81.62,3.73-2.55,6.22-2.87,2.15-.28,4.53-.13,5.17-2.21,1.66,1.56,3.1,3.14,5.91,2.59l11.24-2.17c1.32-.26,1.82-1.72,2.63-2.24.2,1.19-.98,2.55-1.6,3.82,2.33,4.94,3.61,10.25,2.67,15.51Z"/><path class="cls-2" d="M789.76,150.14c-.16.59-.26,1.24-.1,2.04.08.38.36.73.95.6-.07.3.06.63.03.94-.64,2.08-3.02,1.93-5.17,2.21-2.49.32-3.4,3.49-6.22,2.87-.4-1.81.43-4.44-1.14-5.22-.04-2.23-.06-4.59,1.79-6.42,1.23-1.21,3.35-2.2,5.57-1.84,2.8.46,4.13,2.47,4.3,4.81Z"/><path class="cls-3" d="M790.61,152.77c-.59.13-.87-.22-.95-.6-.16-.79-.05-1.44.1-2.04.19.78,1.08,1.67.85,2.64Z"/><path class="cls-1" d="M445.15,354.83c-3.64,16.58-18.29,28.21-35.13,30.07-10.01,1.1-18.72-1.65-27.61-7.01-18.23,13.59-33.02,30.79-43.26,50.96-14.48,28.52-14.15,56.71-7.9,87.24l7.41,36.19c23.16,3.21,39.73,24.97,35.99,48.4-1.65,10.31-7.84,18.59-16.51,23.85-22.59,13.7-51.31,3.34-60.8-21.11-6.83-17.63-.58-36.83,16.56-46.73-3.25-16.74-5.84-33.1-10.84-49.21-10.28-33.11-43.34-48.45-76.4-42.52,3.29,18.53-6.31,34.6-22.61,41.67-21.87,9.5-45.96,1.07-57.49-19.25-.14-.21.03-.58-.06-.81-.23-.31-.48-.61-.76-.88-1.45-6.32-3.55-12.36-3.29-19.33.55-14.84,8.35-27.62,21.85-34.07,17.74-8.47,38.51-4.32,52.18,9.63,31.51-5.67,56.89-2.33,83.17,17.5-4.97-30.6-10.55-59.72-17.43-89.16-1.02-4.35-1.55-8.8,2.27-11.85,5.75-4.59,21.16-5.6,22.61,2l10.05,52.72c15.95-19.64,32.12-37.76,50.33-55.22-3.51-11.45-2.83-23.33,4.02-33.68,13.85-20.93,46.01-22.82,62.92-4.59,8.24,8.89,13.48,22.67,10.74,35.18ZM399.27,329c-6.96,2.88-11.38,9.8-11.07,17.32s5.29,14.05,12.47,16.35,15.02-.14,19.64-6.08c5-6.43,5.04-15.41.1-21.89-4.94-6.47-13.61-8.81-21.14-5.7ZM170.21,480.46c2.49,2.73,4.15,4.55,7.75,6.05,5.15,2.15,10.89,2.83,15.82-.58l.88-.08c7.34-3.52,10.46-11.98,8.52-20.18-1.66-7.06-6.44-12.77-12.3-14.84-7.45-2.63-15.33-1.26-20.62,4.28-7,7.34-6.35,18.44-.05,25.35ZM353.06,591.35c0-9.92-8.05-17.97-17.97-17.97s-17.97,8.04-17.97,17.97,8.05,17.97,17.97,17.97,17.97-8.04,17.97-17.97Z"/><path class="cls-3" d="M146.5,486.58c-.16-.31-.68-.54-.76-.88.28.27.53.57.76.88Z"/><ellipse class="cls-3" cx="335.08" cy="591.35" rx="17.97" ry="17.97"/><path class="cls-2" d="M399.27,329c1.83-.13,4.21-.57,5.85.89,4.13,3.69,3.1,10.3,5.87,14.3,2.46,2.78,8.43,2.91,10.06,7.51.62,1.76.19,3.5-.74,4.89-4.62,5.95-12.47,8.38-19.64,6.08s-12.16-8.82-12.47-16.35,4.11-14.44,11.07-17.32Z"/><path class="cls-3" d="M194.66,485.85c2.15-2.95,8.29-5.89,6.69-10.55-3.38-9.81-16.41-11.63-24.52-6.58-4.47,2.79-7.41,6.89-6.61,11.74-6.3-6.91-6.96-18.01.05-25.35,5.29-5.54,13.18-6.91,20.62-4.28,5.86,2.07,10.64,7.78,12.3,14.84,1.93,8.2-1.18,16.66-8.52,20.18Z"/><path class="cls-2" d="M194.66,485.85l-.88.08c-4.37.41-8.89,1.23-13.56.09-.96-.24-2.23-.55-2.26.49-3.6-1.5-5.27-3.32-7.75-6.05-.8-4.85,2.14-8.95,6.61-11.74,8.12-5.06,21.15-3.23,24.52,6.58,1.6,4.66-4.54,7.6-6.69,10.55Z"/><path class="cls-3" d="M420.31,356.58c.93-1.39,1.36-3.13.74-4.89-1.63-4.6-7.59-4.73-10.06-7.51-2.77-3.99-1.74-10.61-5.87-14.3-1.64-1.46-4.02-1.02-5.85-.89,7.52-3.11,16.2-.77,21.14,5.7,4.94,6.47,4.9,15.46-.1,21.89Z"/><path class="cls-3" d="M193.78,485.93c-4.93,3.41-10.66,2.72-15.82.58.03-1.04,1.29-.73,2.26-.49,4.66,1.15,9.19.33,13.56-.09Z"/></svg>